<?xml version="1.0"?>
<svg xmlns="http://www.w3.org/2000/svg" height="512px" viewBox="0 0 487.90041 487" width="512px"><path d="m433.101562 268.351562c-1.871093-1.875-4.40625-2.925781-7.050781-2.925781s-5.183593 1.050781-7.050781 2.925781l-21.699219 21.699219c-14-7-29.601562-11.800781-46.199219-11.800781-60.601562 0-107.703124 63.601562-109.703124 66.300781-2.597657 3.503907-2.597657 8.296875 0 11.800781 1.203124 1.597657 18.703124 25.296876 45.703124 43.898438l-18.101562 18.101562c-1.871094 1.867188-2.925781 4.402344-2.925781 7.046876 0 2.648437 1.054687 5.183593 2.925781 7.050781 1.875 1.890625 4.4375 2.9375 7.101562 2.902343 2.652344-.011718 5.195313-1.050781 7.097657-2.902343l21.699219-21.699219c14 7 29.601562 11.800781 46.203124 11.800781 60.597657 0 107.699219-63.601562 109.699219-66.300781 2.601563-3.503906 2.601563-8.296875 0-11.800781-1.199219-1.597657-18.699219-25.300781-45.699219-43.898438l18.097657-18.101562c3.824219-3.9375 3.777343-10.214844-.097657-14.097657zm-170.902343 82.097657c12.5-14.800781 48.199219-52.199219 88.800781-52.199219 10.898438 0 21.300781 2.699219 31.101562 6.898438l-5.101562 5.101562c-14.765625-9.550781-33.574219-10.265625-49.023438-1.863281-15.449218 8.402343-25.070312 24.578125-25.078124 42.164062.023437 9.257813 2.695312 18.3125 7.703124 26.097657l-9.300781 9.300781c-18-12-32.101562-27.300781-39.101562-35.5zm116.800781 0c-.007812 15.460937-12.539062 27.992187-28 28-3.921875-.011719-7.804688-.828125-11.398438-2.398438l36.898438-36.902343c1.660156 3.535156 2.515625 7.394531 2.5 11.300781zm-56 0c.011719-15.457031 12.539062-27.988281 28-28 3.925781.015625 7.804688.832031 11.398438 2.402343l-36.898438 36.898438c-1.660156-3.535156-2.511719-7.394531-2.5-11.300781zm116.800781 0c-12.5 14.800781-48.199219 52.199219-88.800781 52.199219-10.898438 0-21.300781-2.699219-31.101562-6.898438l5.101562-5.101562c14.765625 9.554687 33.574219 10.269531 49.023438 1.867187 15.449218-8.402344 25.070312-24.578125 25.078124-42.164063-.023437-9.257812-2.695312-18.316406-7.703124-26.101562l9.300781-9.300781c18 12 32.101562 27.300781 39.101562 35.5zm0 0" fill="#006DF0"/><path d="m405 224.25v-157.898438c.074219-15.285156-12.214844-27.757812-27.5-27.902343h-23.5v-27.597657c0-5.5-4.398438-10.402343-10-10.402343h-61.601562c-5.667969.171875-10.226563 4.730469-10.398438 10.402343v27.597657h-139v-27.597657c-.125-5.652343-4.648438-10.222656-10.300781-10.402343h-61.597657c-5.628906.164062-10.105468 4.773437-10.101562 10.402343v27.597657h-23.398438c-15.304687.136719-27.6289058 12.597656-27.601562 27.902343v304.199219c-.0625 15.316407 12.28125 27.796875 27.601562 27.898438h193.898438c19.5 52 69.898438 89.699219 129 89.699219 75.800781 0 137.398438-61.699219 137.398438-137.597657.085937-54.882812-32.511719-104.546875-82.898438-126.300781zm-54.5-11.398438c-4.398438 0-8.699219.597657-13 .597657h-25.5v-59h73v59h-21.5c-4.199219 0-8.601562-.597657-13-.597657zm-237.5 79.597657v-59h80v59zm80 20v66h-80v-66zm99-158v59h-79v-59zm-99 59h-80v-59h80zm-100 0h-73v-59h73zm0 20v59h-73v-59zm120 0h65.199219c-22.695313 14.285156-40.839844 34.753906-52.300781 59h-12.898438zm79-213h42v62h-42zm-221 0h42v62h-42zm-43.398438 38h23.398438v33.699219c.003906 5.609374 4.492188 10.1875 10.101562 10.300781h61.597657c5.648437-.097657 10.203125-4.652344 10.300781-10.300781v-33.699219h139v33.699219c.179688 5.652343 4.746094 10.175781 10.398438 10.300781h61.601562c5.589844-.121094 10.042969-4.710938 10-10.300781v-33.699219h23.5c4.25.113281 7.609375 3.648437 7.5 7.902343v68.097657h-365v-68.097657c-.023438-4.257812 3.34375-7.761718 7.601562-7.902343zm-7.601562 312.101562v-58.101562h73v66h-65.398438c-4.273437-.105469-7.660156-3.628907-7.601562-7.898438zm193 7.898438v-66h5.398438c-3.589844 12.417969-5.40625 25.277343-5.398438 38.199219.015625 9.339843.953125 18.648437 2.800781 27.800781zm137.5 89.601562c-64.800781 0-117.5-52.800781-117.5-117.601562 0-60.699219 46.300781-111 105.5-117h24.199219c59.199219 6 105.5 56.300781 105.5 117-.097657 64.800781-52.800781 117.601562-117.699219 117.601562zm0 0" fill="#006DF0"/></svg>
