<svg xmlns="http://www.w3.org/2000/svg"><path fill="red" viewBox="0 0 100 100" width="100" height="100" d="M 14 0 C 12.0898 0 10.2422 0.320313 8.5 1.08594 C 8.16406 1.21875 7.92578 1.52734 7.88281 1.89063 C 7.83594 2.25391 7.99219 2.60938 8.28906 2.82031 C 8.58203 3.03516 8.97266 3.07031 9.30078 2.91406 C 10.7578 2.27734 12.3125 2 14 2 C 20.6641 2 26 7.33594 26 14 C 26 20.6641 20.6641 26 14 26 C 7.33594 26 2 20.6641 2 14 C 2 10.9609 3.16406 8.24219 5 6.08594 L 5 8.69922 C 4.99609 9.05859 5.18359 9.39453 5.49609 9.57813 C 5.80859 9.75781 6.19141 9.75781 6.50391 9.57813 C 6.81641 9.39453 7.00391 9.05859 7 8.69922 L 7 3 L 1.30078 3 C 0.941406 2.99609 0.605469 3.18359 0.421875 3.49609 C 0.242188 3.80859 0.242188 4.19141 0.421875 4.50391 C 0.605469 4.81641 0.941406 5.00391 1.30078 5 L 3.29297 5 C 1.28516 7.44922 0 10.5547 0 14 C 0 21.7383 6.26172 28 14 28 C 21.7383 28 28 21.7383 28 14 C 28 6.26172 21.7383 0 14 0 Z M 38 0 C 36.9063 0 36 0.90625 36 2 L 36 4 L 26.4688 4 C 26.9766 4.62891 27.4297 5.30078 27.8359 6 L 36 6 L 36 8 C 36 9.09375 36.9063 10 38 10 L 40 10 C 41.0938 10 42 9.09375 42 8 L 42 6 L 47 6 L 47 13 L 29.9492 13 C 29.9688 13.332 30 13.6602 30 14 C 30 14.3398 29.9688 14.668 29.9492 15 L 47 15 L 47 46 L 5 46 L 5 27.2188 C 4.28516 26.7305 3.625 26.1797 3 25.5898 L 3 46 C 3 47.1602 3.83984 48 5 48 L 47 48 C 48.1602 48 49 47.1602 49 46 L 49 6 C 49 4.83984 48.1602 4 47 4 L 42 4 L 42 2 C 42 0.90625 41.0938 0 40 0 Z M 38 2 L 40 2 L 40 8 L 38 8 Z M 13.9844 4.98438 C 13.4336 4.99609 12.9922 5.44922 13 6 L 13 13.8398 C 12.9688 14.0547 13.0039 14.2734 13.1094 14.4648 C 13.1992 14.6445 13.3438 14.793 13.5195 14.8906 L 17.4023 17.8008 C 17.8438 18.1328 18.4688 18.043 18.8008 17.5977 C 19.1328 17.1563 19.043 16.5313 18.5977 16.1992 L 15 13.5 L 15 6 C 15.0039 5.73047 14.8984 5.46875 14.707 5.27734 C 14.5156 5.08594 14.2539 4.98047 13.9844 4.98438 Z M 29.1875 19 C 28.9609 19.6914 28.6797 20.3555 28.3633 21 L 32 21 L 32 26 L 25 26 L 25 33 L 20 33 L 20 28.8242 C 19.3555 29.0859 18.6836 29.2969 18 29.4727 L 18 33 L 13 33 L 13 29.9492 C 12.3203 29.9063 11.6523 29.832 11 29.707 L 11 42 L 41 42 L 41 19 Z M 34 21 L 39 21 L 39 26 L 34 26 Z M 27 28 L 32 28 L 32 33 L 27 33 Z M 34 28 L 39 28 L 39 33 L 34 33 Z M 13 35 L 18 35 L 18 40 L 13 40 Z M 20 35 L 25 35 L 25 40 L 20 40 Z M 27 35 L 32 35 L 32 40 L 27 40 Z M 34 35 L 39 35 L 39 40 L 34 40 Z"/></svg>